<?xml version="1.0" encoding="utf-8"?>
<!-- Generator: Adobe Illustrator 16.0.0, SVG Export Plug-In . SVG Version: 6.00 Build 0)  -->
<!DOCTYPE svg PUBLIC "-//W3C//DTD SVG 1.1//EN" "http://www.w3.org/Graphics/SVG/1.1/DTD/svg11.dtd">
<svg version="1.1" xmlns="http://www.w3.org/2000/svg" xmlns:xlink="http://www.w3.org/1999/xlink" x="0px" y="0px"
	 width="141.732px" height="142.866px" viewBox="0 0 141.732 142.866" enable-background="new 0 0 141.732 142.866"
	 xml:space="preserve">
<g id="shape">
	<rect fill-rule="evenodd" clip-rule="evenodd" fill="#181E49" width="141.732" height="142.976"/>
</g>
<g id="inCall">
	<g>
		<g>
			<path fill-rule="evenodd" clip-rule="evenodd" fill="#4D60AC" d="M67.248,90.136c0,0.486-0.137,0.908-0.385,1.256
				s-0.622,0.521-1.106,0.521c-0.298,0-0.634-0.049-1.007-0.135c-0.361-0.1-0.547-0.238-0.547-0.449
				c0-0.359,0.111-0.721,0.348-1.057c0.224-0.336,0.51-0.609,0.833-0.82c0.261-0.148,0.423-0.225,0.51-0.225
				c0.435,0,0.758,0.064,0.995,0.176S67.248,89.763,67.248,90.136z M74.671,99.337c0.012,0.148-0.063,0.373-0.199,0.633
				c-0.15,0.273-0.349,0.584-0.609,0.934c-0.249,0.334-0.547,0.709-0.883,1.094c-0.336,0.396-0.695,0.783-1.058,1.182
				c-0.422,0.447-0.869,0.883-1.342,1.305c-0.485,0.422-0.982,0.82-1.517,1.219c-1.069,0.783-2.014,1.168-2.834,1.168
				c-0.92,0-1.629-0.297-2.139-0.906c-0.51-0.621-0.858-1.369-1.032-2.238c-0.187-0.871-0.273-1.766-0.273-2.686
				c0-0.387,0.049-0.982,0.136-1.803c0.05-0.41,0.087-0.758,0.137-1.045c0.049-0.299,0.087-0.535,0.149-0.721
				c0.1-0.348,0.323-0.658,0.671-0.92c0.349-0.287,0.709-0.422,1.082-0.422c0.211,0,0.311,0.186,0.311,0.57
				c0,0.262-0.025,0.549-0.075,0.871l-0.149,0.969c-0.099,0.598-0.173,1.133-0.223,1.604c-0.038,0.461-0.063,0.871-0.063,1.219
				c0,0.771,0.099,1.529,0.311,2.314c0.211,0.793,0.597,1.18,1.157,1.18c0.56,0,1.206-0.199,1.939-0.609
				c0.373-0.211,0.746-0.447,1.119-0.695c0.373-0.262,0.746-0.549,1.107-0.859c0.385-0.322,0.747-0.633,1.094-0.957
				c0.347-0.322,0.683-0.658,1.019-0.994s0.635-0.658,0.895-0.945c0.273-0.299,0.497-0.57,0.696-0.82l0.038-0.074l0.062-0.1
				l0.075-0.086c0.012-0.012,0.037-0.025,0.063-0.012c0.111,0,0.186,0.072,0.236,0.246C74.646,99.101,74.671,99.238,74.671,99.337z"
				/>
			<path fill-rule="evenodd" clip-rule="evenodd" fill="#4D60AC" d="M92.686,98.605c0,0.146-0.025,0.285-0.074,0.434
				c-0.05,0.148-0.112,0.299-0.188,0.447c-0.075,0.15-0.147,0.287-0.235,0.422l-0.262,0.41c-0.224,0.336-0.484,0.686-0.771,1.033
				c-0.298,0.348-0.621,0.695-0.958,1.02c-0.336,0.334-0.684,0.646-1.03,0.943c-0.362,0.287-0.709,0.549-1.046,0.785l-0.782,0.496
				c-0.236,0.162-0.486,0.299-0.733,0.41c-0.249,0.113-0.511,0.213-0.785,0.273c-0.271,0.076-0.57,0.1-0.894,0.1
				c-0.636,0-1.144-0.148-1.542-0.473c-0.188-0.16-0.361-0.359-0.51-0.621c-0.149-0.248-0.274-0.521-0.387-0.832
				c-0.111-0.311-0.211-0.648-0.285-0.994c-0.074-0.336-0.148-0.686-0.199-1.021l-0.186-1.143c-0.063-0.336-0.137-0.609-0.211-0.846
				c-0.088-0.223-0.188-0.41-0.299-0.533c-0.111-0.125-0.262-0.188-0.436-0.188c-0.15,0-0.285,0.012-0.41,0.049
				c-0.125,0.025-0.262,0.088-0.397,0.174c-0.151,0.1-0.299,0.225-0.462,0.387c-0.172,0.174-0.371,0.385-0.582,0.658
				c-0.225,0.273-0.486,0.609-0.772,0.996l-1.007,1.402c-0.197,0.264-0.422,0.561-0.671,0.873c-0.261,0.322-0.522,0.621-0.796,0.906
				c-0.261,0.285-0.523,0.535-0.783,0.758c-0.262,0.213-0.485,0.359-0.684,0.424c-0.658-0.15-0.994-0.971-0.994-2.486
				c0-0.398,0.049-1.008,0.137-1.816l0.161-1.156c0.062-0.41,0.138-0.807,0.225-1.219c0.086-0.396,0.198-0.795,0.311-1.168
				c0.112-0.385,0.261-0.734,0.411-1.068c0.072-0.15,0.16-0.262,0.247-0.35c0.075-0.086,0.161-0.148,0.249-0.199
				c0.086-0.037,0.174-0.061,0.273-0.072l0.286-0.014c0.124,0,0.235,0.074,0.323,0.248c0.1,0.162,0.148,0.387,0.148,0.686
				c0,0.186-0.025,0.346-0.049,0.51c-0.024,0.16-0.076,0.322-0.124,0.482l-0.175,0.535c-0.063,0.199-0.124,0.424-0.175,0.672
				l-0.16,0.672l-0.151,0.758c-0.048,0.26-0.098,0.51-0.135,0.758c-0.025,0.236-0.051,0.461-0.051,0.66
				c0,0.137,0.025,0.273,0.074,0.422c0.211-0.025,0.561-0.348,1.045-0.957l0.82-1.02l0.971-1.217c0.26-0.338,0.51-0.648,0.77-0.934
				c0.25-0.285,0.511-0.535,0.785-0.746c0.271-0.211,0.559-0.385,0.869-0.51s0.646-0.186,1.02-0.186
				c0.385,0,0.722,0.086,0.981,0.248c0.25,0.174,0.462,0.41,0.622,0.709c0.162,0.297,0.286,0.645,0.373,1.068
				c0.088,0.41,0.162,0.871,0.211,1.367l0.125,1.258c0.051,0.408,0.125,0.781,0.248,1.117c0.125,0.322,0.299,0.584,0.523,0.795
				c0.224,0.199,0.547,0.299,0.969,0.299c0.323,0,0.672-0.074,1.021-0.223c0.359-0.15,0.733-0.361,1.132-0.621
				c0.385-0.275,0.795-0.586,1.218-0.945c0.423-0.375,0.847-0.76,1.293-1.195c0.175-0.16,0.373-0.373,0.572-0.621l0.621-0.734
				c0.199-0.234,0.385-0.434,0.56-0.596c0.174-0.174,0.312-0.248,0.423-0.248c0.036,0,0.111,0.012,0.211,0.063
				C92.636,98.429,92.686,98.505,92.686,98.605z"/>
		</g>
		<g>
			<path fill-rule="evenodd" clip-rule="evenodd" fill="#4D60AC" d="M96.066,104.72c0.685,0,1.256-0.199,1.717-0.598
				c0.447-0.396,0.696-0.895,0.722-1.479h2.598c-0.025,0.758-0.262,1.479-0.709,2.137c-0.446,0.662-1.056,1.184-1.815,1.568
				c-0.771,0.385-1.591,0.572-2.474,0.572c-1.716,0-3.083-0.561-4.091-1.666c-1.007-1.107-1.504-2.637-1.504-4.588v-0.285
				c0-1.865,0.497-3.357,1.492-4.477c1.008-1.119,2.362-1.678,4.09-1.678c1.455,0,2.648,0.422,3.568,1.279
				c0.921,0.846,1.405,1.953,1.442,3.332h-2.598c-0.025-0.697-0.263-1.268-0.722-1.729c-0.448-0.447-1.02-0.67-1.717-0.67
				c-0.895,0-1.578,0.311-2.063,0.957c-0.483,0.645-0.733,1.629-0.733,2.934v0.447c0,1.33,0.236,2.313,0.721,2.973
				C94.464,104.398,95.159,104.72,96.066,104.72z"/>
			<path fill-rule="evenodd" clip-rule="evenodd" fill="#4D60AC" d="M106.561,104.72c0.547,0,1.058-0.137,1.542-0.398
				c0.484-0.273,0.845-0.621,1.081-1.068v-2.301h-1.479c-1.019,0-1.791,0.174-2.313,0.523c-0.51,0.359-0.77,0.857-0.77,1.504
				c0,0.533,0.186,0.957,0.534,1.268C105.503,104.558,105.977,104.72,106.561,104.72z M109.595,106.697
				c-0.125-0.236-0.224-0.621-0.323-1.143c-0.872,0.906-1.94,1.367-3.221,1.367c-1.23,0-2.238-0.348-3.009-1.057
				c-0.783-0.697-1.17-1.566-1.17-2.598c0-1.307,0.486-2.301,1.455-3.01c0.971-0.697,2.362-1.045,4.166-1.045h1.69v-0.795
				c0-0.635-0.175-1.145-0.534-1.529c-0.35-0.373-0.896-0.572-1.617-0.572c-0.634,0-1.144,0.16-1.542,0.473
				c-0.41,0.311-0.609,0.709-0.609,1.193h-2.746c0-0.672,0.211-1.293,0.658-1.877c0.448-0.584,1.056-1.045,1.828-1.381
				c0.77-0.336,1.628-0.496,2.574-0.496c1.429,0,2.572,0.359,3.431,1.08c0.857,0.723,1.292,1.729,1.317,3.033v5.521
				c0,1.105,0.149,1.99,0.461,2.635v0.199H109.595z"/>
			<rect x="114.082" y="89.316" fill-rule="evenodd" clip-rule="evenodd" fill="#4D60AC" width="2.748" height="17.381"/>
			<rect x="119.079" y="89.316" fill-rule="evenodd" clip-rule="evenodd" fill="#4D60AC" width="2.761" height="17.381"/>
		</g>
	</g>
</g>
<g id="redt">
	<g>
		<path fill-rule="evenodd" clip-rule="evenodd" fill="#FFFFFF" d="M41.078,58.284c-1.442-0.945-3.021-1.417-4.737-1.417
			c-1.865,0-3.531,0.845-4.974,2.536c-1.454,1.691-2.175,3.755-2.175,6.204V85.2h-8.056V50.8h8.056v3.146
			c2.25-2.524,5.247-3.792,8.989-3.792c2.748,0,4.849,0.423,6.316,1.256L41.078,58.284z"/>
		<path fill-rule="evenodd" clip-rule="evenodd" fill="#FFFFFF" d="M47.854,64.414h16.946c-0.56-5.036-3.357-7.546-8.38-7.546
			C51.819,56.867,48.959,59.378,47.854,64.414z M72.208,70.456H47.555c0.149,2.735,1.107,4.873,2.847,6.391
			c1.741,1.516,4.078,2.275,7.012,2.275c3.68,0,6.465-0.946,8.379-2.86l3.121,6.141c-2.822,2.289-7.062,3.433-12.682,3.433
			c-5.271,0-9.436-1.528-12.495-4.601c-3.059-3.084-4.587-7.371-4.587-12.866c0-5.421,1.678-9.81,5.035-13.167
			c3.369-3.369,7.398-5.047,12.109-5.047c4.998,0,9.014,1.492,12.048,4.463c3.021,2.971,4.537,6.764,4.537,11.376
			C72.88,66.975,72.655,68.466,72.208,70.456z"/>
		<path fill-rule="evenodd" clip-rule="evenodd" fill="#FFFFFF" d="M93.667,59.018c-1.715-1.368-3.506-2.052-5.383-2.052
			c-3.221,0-5.695,0.982-7.436,2.935c-1.74,1.964-2.611,4.774-2.611,8.429c0,7.162,3.457,10.729,10.37,10.729
			c0.784,0,1.729-0.223,2.86-0.684c1.119-0.472,1.864-0.932,2.199-1.404V59.018z M93.667,85.2v-2.089
			c-0.657,0.722-1.789,1.355-3.381,1.902c-1.58,0.549-3.233,0.821-4.924,0.821c-4.812,0-8.604-1.517-11.364-4.55
			c-2.759-3.047-4.126-7.287-4.126-12.731c0-5.433,1.58-9.859,4.749-13.278c3.158-3.419,7.124-5.122,11.898-5.122
			c2.624,0,5.011,0.535,7.148,1.604V37.981l8.058-1.927V85.2H93.667z"/>
		<path fill-rule="evenodd" clip-rule="evenodd" fill="#FFFFFF" d="M103.154,57.252h-3.992V50.8h3.992v-7l8.056-2.959V50.8h9.475
			v6.452h-9.475v15.069c0,2.462,0.386,4.202,1.156,5.222c0.771,1.018,2.126,1.516,4.066,1.516c1.927,0,3.729-0.521,5.407-1.566
			v7.385c-1.864,0.634-4.538,0.958-7.993,0.958c-3.432,0-6.081-0.97-7.92-2.909c-1.854-1.927-2.772-4.688-2.772-8.268V57.252z"/>
	</g>
</g>
</svg>
